<svg xmlns="http://www.w3.org/2000/svg" width="512" height="512" viewBox="0 0 512 512" version="1.1"><path d="M 202 117.149 C 183.493 118.544, 166.709 120.852, 165.932 122.110 C 165.536 122.751, 164.928 125.051, 164.581 127.221 C 163.331 135.035, 155.283 147.768, 149.800 150.603 C 145.885 152.628, 143.238 152.329, 140.455 149.545 C 136.766 145.857, 137.225 142.017, 142.014 136.483 C 146.089 131.775, 149 126.992, 149 125.004 C 149 123.645, 145.855 124.161, 127.500 128.528 C 88.661 137.770, 63.338 150.673, 56.905 164.500 C 54.432 169.816, 54.543 173.481, 57.359 179.500 C 61.124 187.546, 69.829 195.184, 85 203.754 C 104.083 214.533, 140.643 223.134, 186 227.516 C 208.896 229.728, 257.850 230.531, 283 229.108 C 347.797 225.440, 390.478 215.505, 419.123 197.422 C 433.449 188.379, 439.899 175.875, 435.576 165.528 C 432.290 157.663, 420.673 148.383, 405.401 141.423 C 398.058 138.077, 372.174 129.362, 371.742 130.091 C 371.609 130.316, 370 133.514, 368.167 137.199 C 364.284 145.005, 357.327 152, 353.445 152 C 350.521 152, 345 147.104, 345 144.511 C 345 142.099, 346.875 138.947, 350.620 135.063 C 352.443 133.172, 354.366 130.390, 354.892 128.879 C 355.827 126.197, 355.735 126.109, 350.937 125.080 C 341.524 123.061, 311.404 119.058, 298 118.044 C 290.575 117.483, 281.267 116.777, 277.317 116.476 L 270.133 115.929 269.475 120.714 C 267.775 133.081, 264.214 140.655, 256.871 147.524 C 251.508 152.541, 248.666 153.099, 244.635 149.927 C 240.635 146.781, 241.001 141.848, 245.613 136.744 C 249.774 132.138, 252.619 126.235, 253.583 120.208 L 254.256 116 233.878 116.141 C 222.670 116.218, 208.325 116.672, 202 117.149 M 128.500 374.277 C 120.307 378.678, 113.442 385.646, 111.992 391.032 C 111.042 394.557, 111.125 396.039, 112.469 399.557 C 114.517 404.920, 121.939 411.940, 129.624 415.781 C 167.945 434.939, 261.110 440.498, 325.657 427.478 C 366.335 419.273, 386.427 404.849, 379.648 388.718 C 377.745 384.190, 370.177 377.562, 362.702 373.875 L 356.351 370.744 346.925 377.689 C 335.155 386.362, 327.696 390.859, 315.817 396.444 C 276.614 414.875, 231.867 416.999, 190.752 402.380 C 175.140 396.829, 153.850 384.847, 141.861 374.863 C 139.310 372.738, 136.610 371.012, 135.861 371.027 C 135.113 371.041, 131.800 372.504, 128.500 374.277" stroke="none" fill="#717f8f" fill-rule="evenodd"/><path d="M 137.468 36.312 C 128.294 45.784, 124.253 58.437, 126.128 71.826 C 127.388 80.825, 131.138 87.952, 139.176 96.621 C 147.733 105.849, 149.356 109.346, 149.335 118.500 C 149.317 126.441, 148.084 129.471, 142.014 136.483 C 137.225 142.017, 136.766 145.857, 140.455 149.545 C 141.805 150.895, 143.852 152, 145.004 152 C 152.571 152, 162.340 138.924, 165.045 125.176 C 167.799 111.180, 163.789 99.145, 152.213 86.661 C 144.734 78.594, 142 72.930, 142 65.500 C 142 59.139, 144.737 52.509, 149.592 47.109 C 154.907 41.198, 155.255 38.102, 151.077 33.923 C 146.608 29.454, 143.598 29.983, 137.468 36.312 M 241.948 35.645 C 232.554 44.433, 227.459 59.613, 229.758 71.972 C 231.483 81.251, 235.161 88.186, 242.501 96.001 C 246.156 99.892, 250.085 105.197, 251.233 107.788 C 255.462 117.336, 253.359 128.169, 245.613 136.744 C 241.001 141.848, 240.635 146.781, 244.635 149.927 C 248.701 153.126, 251.503 152.545, 257.052 147.355 C 263.235 141.571, 267.612 132.803, 269.045 123.327 C 271.106 109.701, 267.273 98.567, 256.641 87.296 C 248.545 78.714, 246.044 73.570, 246.044 65.500 C 246.044 58.176, 248.482 52.370, 254.132 46.241 C 257.640 42.436, 258.128 41.371, 257.607 38.657 C 256.871 34.816, 252.781 31, 249.401 31 C 247.822 31, 245.103 32.695, 241.948 35.645 M 348.070 32.794 C 343.762 35.788, 337.096 45.950, 335.011 52.701 C 329.918 69.191, 335.176 86.792, 348.992 99.500 C 358.702 108.432, 359.533 125.839, 350.686 135 C 346.881 138.940, 345 142.086, 345 144.511 C 345 147.104, 350.521 152, 353.445 152 C 360.208 152, 371.576 135.226, 372.895 123.301 C 374.462 109.133, 370.321 97.779, 359.224 85.810 C 352.221 78.259, 349 71.859, 349 65.500 C 349 60.354, 352.257 52.778, 356.543 47.951 C 362.007 41.800, 362.562 37.352, 358.354 33.452 C 355.297 30.619, 351.544 30.379, 348.070 32.794 M 55.515 183 C 56.674 199.586, 59.149 219.670, 61.565 232.103 C 68.627 268.436, 82.271 303.291, 99.232 328.327 C 101.403 331.532, 103.026 334.260, 102.840 334.389 C 102.653 334.518, 96.877 335.887, 90.004 337.431 C 44.402 347.677, 13.332 364.392, 3.763 383.829 C 0.696 390.059, 0.515 391.042, 0.508 401.463 C 0.501 411.673, 0.714 412.906, 3.352 417.917 C 17.410 444.625, 68.697 465.060, 146.500 474.956 C 223.638 484.767, 318.646 482.171, 386.500 468.400 C 443.385 456.854, 478.237 439.520, 489.148 417.349 C 492.132 411.284, 492.494 409.656, 492.442 402.518 C 492.292 381.561, 482.096 368.569, 455.569 355.530 C 441.131 348.433, 430.208 344.506, 411.169 339.568 L 398.500 336.282 406.544 333.722 C 418.342 329.968, 425.557 328.888, 444.500 328.038 C 459.099 327.384, 462.630 326.893, 469.500 324.564 C 479.947 321.023, 486.725 317.071, 494.230 310.143 C 506.401 298.908, 512 286.599, 512 271.076 C 512 255.800, 506.926 243.927, 495.505 232.477 C 482.773 219.713, 464.968 213.338, 444.654 214.271 L 433.808 214.769 434.417 210.634 C 435.488 203.365, 436.948 186.666, 436.964 181.500 L 436.980 176.500 434.642 181.500 C 430.727 189.870, 422.939 196.066, 405.259 204.877 C 378.885 218.022, 338.918 225.943, 283 229.108 C 257.850 230.531, 208.896 229.728, 186 227.516 C 140.643 223.134, 104.083 214.533, 85 203.754 C 69.877 195.211, 61.174 187.589, 57.310 179.500 L 54.921 174.500 55.515 183 M 441.500 230.615 C 440.400 230.897, 437.463 231.777, 434.974 232.570 L 430.448 234.012 428.686 242.575 C 424.632 262.269, 416.757 284.434, 406.417 305.250 C 402.934 312.262, 400.209 318, 400.361 318 C 400.513 318, 402.934 317.318, 405.741 316.484 C 415.526 313.578, 420.624 312.910, 439.500 312.059 C 454.724 311.372, 459.677 310.784, 464.420 309.096 C 477.027 304.612, 486.758 296.792, 491.571 287.278 C 494.248 281.986, 494.494 280.617, 494.497 271 C 494.500 261.716, 494.192 259.843, 491.840 254.825 C 486.653 243.760, 477.585 236.294, 465.148 232.848 C 458.317 230.956, 445.054 229.703, 441.500 230.615 M 128.500 374.277 C 120.307 378.678, 113.442 385.646, 111.992 391.032 C 111.042 394.557, 111.125 396.039, 112.469 399.557 C 114.517 404.920, 121.939 411.940, 129.624 415.781 C 167.945 434.939, 261.110 440.498, 325.657 427.478 C 366.335 419.273, 386.427 404.849, 379.648 388.718 C 377.745 384.190, 370.177 377.562, 362.702 373.875 L 356.351 370.744 346.925 377.689 C 335.155 386.362, 327.696 390.859, 315.817 396.444 C 276.614 414.875, 231.867 416.999, 190.752 402.380 C 175.140 396.829, 153.850 384.847, 141.861 374.863 C 139.310 372.738, 136.610 371.012, 135.861 371.027 C 135.113 371.041, 131.800 372.504, 128.500 374.277" stroke="none" fill="#d8d9d9" fill-rule="evenodd"/></svg>